<?xml version="1.0" encoding="utf-8" standalone="no"?>
<!DOCTYPE svg PUBLIC "-//W3C//DTD SVG 1.1//EN"
  "http://www.w3.org/Graphics/SVG/1.1/DTD/svg11.dtd">
<svg xmlns:xlink="http://www.w3.org/1999/xlink" width="504pt" height="432pt" viewBox="0 0 504 432" xmlns="http://www.w3.org/2000/svg" version="1.1">
 <defs>
  <style type="text/css">*{stroke-linejoin: round; stroke-linecap: butt}</style>
 </defs>
 <g id="figure_1">
  <g id="patch_1">
   <path d="M 0 432 
L 504 432 
L 504 0 
L 0 0 
z
" style="fill: #ffffff"/>
  </g>
  <g id="axes_1">
   <g id="patch_2">
    <path d="M 0 432 
L 504 432 
L 504 0 
L 0 0 
z
" clip-path="url(#pb5bdab1115)" style="fill: #ffffff; stroke: #ffffff; stroke-linejoin: miter"/>
   </g>
   <g id="patch_3">
    <path d="M 0 432 
Q 0 0 0 0 
L 504 0 
L 504 432 
z
" clip-path="url(#pb5bdab1115)" style="fill: #ffffff"/>
   </g>
   <g id="patch_4">
    <path d="M 25.2 0 
Q 25.2 21.6 25.2 21.6 
L 504 21.6 
L 504 0 
z
" clip-path="url(#pb5bdab1115)" style="fill: #ffffff"/>
   </g>
   <g id="patch_5">
    <path d="M 25.2 64.8 
Q 25.2 194.4 25.2 194.4 
L 504 194.4 
L 504 64.8 
z
" clip-path="url(#pb5bdab1115)" style="fill: #ffffff"/>
   </g>
   <g id="patch_6">
    <path d="M 25.2 237.6 
Q 25.2 367.2 25.2 367.2 
L 504 367.2 
L 504 237.6 
z
" clip-path="url(#pb5bdab1115)" style="fill: #ffffff"/>
   </g>
   <g id="patch_7">
    <path d="M 25.2 410.4 
Q 25.2 432 25.2 432 
L 504 432 
L 504 410.4 
z
" clip-path="url(#pb5bdab1115)" style="fill: #ffffff"/>
   </g>
   <g id="patch_8">
    <path d="M 75.6 0 
Q 75.6 21.6 75.6 21.6 
L 504 21.6 
L 504 0 
z
" clip-path="url(#pb5bdab1115)" style="fill: #ffffff"/>
   </g>
   <g id="patch_9">
    <path d="M 75.6 64.8 
Q 75.6 194.4 75.6 194.4 
L 504 194.4 
L 504 64.8 
z
" clip-path="url(#pb5bdab1115)" style="fill: #ffffff"/>
   </g>
   <g id="patch_10">
    <path d="M 75.6 237.6 
Q 75.6 367.2 75.6 367.2 
L 504 367.2 
L 504 237.6 
z
" clip-path="url(#pb5bdab1115)" style="fill: #ffffff"/>
   </g>
   <g id="patch_11">
    <path d="M 75.6 410.4 
Q 75.6 432 75.6 432 
L 504 432 
L 504 410.4 
z
" clip-path="url(#pb5bdab1115)" style="fill: #ffffff"/>
   </g>
   <g id="patch_12">
    <path d="M 126 0 
Q 126 21.6 126 21.6 
L 504 21.6 
L 504 0 
z
" clip-path="url(#pb5bdab1115)" style="fill: #ffffff"/>
   </g>
   <g id="patch_13">
    <path d="M 126 64.8 
Q 126 108 126 108 
L 504 108 
L 504 64.8 
z
" clip-path="url(#pb5bdab1115)" style="fill: #ffffff"/>
   </g>
   <g id="patch_14">
    <path d="M 126 151.2 
Q 126 194.4 126 194.4 
L 504 194.4 
L 504 151.2 
z
" clip-path="url(#pb5bdab1115)" style="fill: #ffffff"/>
   </g>
   <g id="patch_15">
    <path d="M 126 237.6 
Q 126 280.8 126 280.8 
L 504 280.8 
L 504 237.6 
z
" clip-path="url(#pb5bdab1115)" style="fill: #ffffff"/>
   </g>
   <g id="patch_16">
    <path d="M 126 324 
Q 126 367.2 126 367.2 
L 504 367.2 
L 504 324 
z
" clip-path="url(#pb5bdab1115)" style="fill: #ffffff"/>
   </g>
   <g id="patch_17">
    <path d="M 126 410.4 
Q 126 432 126 432 
L 504 432 
L 504 410.4 
z
" clip-path="url(#pb5bdab1115)" style="fill: #ffffff"/>
   </g>
   <g id="patch_18">
    <path d="M 176.4 0 
Q 176.4 21.6 176.4 21.6 
L 504 21.6 
L 504 0 
z
" clip-path="url(#pb5bdab1115)" style="fill: #ffffff"/>
   </g>
   <g id="patch_19">
    <path d="M 176.4 64.8 
Q 176.4 108 176.4 108 
L 504 108 
L 504 64.8 
z
" clip-path="url(#pb5bdab1115)" style="fill: #ffffff"/>
   </g>
   <g id="patch_20">
    <path d="M 176.4 151.2 
Q 176.4 194.4 176.4 194.4 
L 504 194.4 
L 504 151.2 
z
" clip-path="url(#pb5bdab1115)" style="fill: #ffffff"/>
   </g>
   <g id="patch_21">
    <path d="M 176.4 237.6 
Q 176.4 280.8 176.4 280.8 
L 504 280.8 
L 504 237.6 
z
" clip-path="url(#pb5bdab1115)" style="fill: #ffffff"/>
   </g>
   <g id="patch_22">
    <path d="M 176.4 324 
Q 176.4 367.2 176.4 367.2 
L 504 367.2 
L 504 324 
z
" clip-path="url(#pb5bdab1115)" style="fill: #ffffff"/>
   </g>
   <g id="patch_23">
    <path d="M 176.4 410.4 
Q 176.4 432 176.4 432 
L 504 432 
L 504 410.4 
z
" clip-path="url(#pb5bdab1115)" style="fill: #ffffff"/>
   </g>
   <g id="patch_24">
    <path d="M 189 21.6 
Q 189 64.8 189 64.8 
L 504 64.8 
L 504 21.6 
z
" clip-path="url(#pb5bdab1115)" style="fill: #ffffff"/>
   </g>
   <g id="patch_25">
    <path d="M 189 194.4 
Q 189 237.6 189 237.6 
L 504 237.6 
L 504 194.4 
z
" clip-path="url(#pb5bdab1115)" style="fill: #ffffff"/>
   </g>
   <g id="patch_26">
    <path d="M 189 367.2 
Q 189 410.4 189 410.4 
L 504 410.4 
L 504 367.2 
z
" clip-path="url(#pb5bdab1115)" style="fill: #ffffff"/>
   </g>
   <g id="patch_27">
    <path d="M 226.8 0 
Q 226.8 21.6 226.8 21.6 
L 504 21.6 
L 504 0 
z
" clip-path="url(#pb5bdab1115)" style="fill: #ffffff"/>
   </g>
   <g id="patch_28">
    <path d="M 226.8 64.8 
Q 226.8 108 226.8 108 
L 504 108 
L 504 64.8 
z
" clip-path="url(#pb5bdab1115)" style="fill: #ffffff"/>
   </g>
   <g id="patch_29">
    <path d="M 226.8 151.2 
Q 226.8 194.4 226.8 194.4 
L 504 194.4 
L 504 151.2 
z
" clip-path="url(#pb5bdab1115)" style="fill: #ffffff"/>
   </g>
   <g id="patch_30">
    <path d="M 226.8 237.6 
Q 226.8 280.8 226.8 280.8 
L 504 280.8 
L 504 237.6 
z
" clip-path="url(#pb5bdab1115)" style="fill: #ffffff"/>
   </g>
   <g id="patch_31">
    <path d="M 226.8 324 
Q 226.8 367.2 226.8 367.2 
L 504 367.2 
L 504 324 
z
" clip-path="url(#pb5bdab1115)" style="fill: #ffffff"/>
   </g>
   <g id="patch_32">
    <path d="M 226.8 410.4 
Q 226.8 432 226.8 432 
L 504 432 
L 504 410.4 
z
" clip-path="url(#pb5bdab1115)" style="fill: #ffffff"/>
   </g>
   <g id="patch_33">
    <path d="M 277.2 0 
Q 277.2 21.6 277.2 21.6 
L 504 21.6 
L 504 0 
z
" clip-path="url(#pb5bdab1115)" style="fill: #ffffff"/>
   </g>
   <g id="patch_34">
    <path d="M 277.2 64.8 
Q 277.2 108 277.2 108 
L 504 108 
L 504 64.8 
z
" clip-path="url(#pb5bdab1115)" style="fill: #ffffff"/>
   </g>
   <g id="patch_35">
    <path d="M 277.2 151.2 
Q 277.2 194.4 277.2 194.4 
L 504 194.4 
L 504 151.2 
z
" clip-path="url(#pb5bdab1115)" style="fill: #ffffff"/>
   </g>
   <g id="patch_36">
    <path d="M 277.2 237.6 
Q 277.2 280.8 277.2 280.8 
L 504 280.8 
L 504 237.6 
z
" clip-path="url(#pb5bdab1115)" style="fill: #ffffff"/>
   </g>
   <g id="patch_37">
    <path d="M 277.2 324 
Q 277.2 367.2 277.2 367.2 
L 504 367.2 
L 504 324 
z
" clip-path="url(#pb5bdab1115)" style="fill: #ffffff"/>
   </g>
   <g id="patch_38">
    <path d="M 277.2 410.4 
Q 277.2 432 277.2 432 
L 504 432 
L 504 410.4 
z
" clip-path="url(#pb5bdab1115)" style="fill: #ffffff"/>
   </g>
   <g id="patch_39">
    <path d="M 289.8 108 
Q 289.8 151.2 289.8 151.2 
L 504 151.2 
L 504 108 
z
" clip-path="url(#pb5bdab1115)" style="fill: #ffffff"/>
   </g>
   <g id="patch_40">
    <path d="M 289.8 280.8 
Q 289.8 324 289.8 324 
L 504 324 
L 504 280.8 
z
" clip-path="url(#pb5bdab1115)" style="fill: #ffffff"/>
   </g>
   <g id="patch_41">
    <path d="M 327.6 0 
Q 327.6 21.6 327.6 21.6 
L 504 21.6 
L 504 0 
z
" clip-path="url(#pb5bdab1115)" style="fill: #ffffff"/>
   </g>
   <g id="patch_42">
    <path d="M 327.6 64.8 
Q 327.6 108 327.6 108 
L 504 108 
L 504 64.8 
z
" clip-path="url(#pb5bdab1115)" style="fill: #ffffff"/>
   </g>
   <g id="patch_43">
    <path d="M 327.6 151.2 
Q 327.6 194.4 327.6 194.4 
L 504 194.4 
L 504 151.2 
z
" clip-path="url(#pb5bdab1115)" style="fill: #ffffff"/>
   </g>
   <g id="patch_44">
    <path d="M 327.6 237.6 
Q 327.6 280.8 327.6 280.8 
L 504 280.8 
L 504 237.6 
z
" clip-path="url(#pb5bdab1115)" style="fill: #ffffff"/>
   </g>
   <g id="patch_45">
    <path d="M 327.6 324 
Q 327.6 367.2 327.6 367.2 
L 504 367.2 
L 504 324 
z
" clip-path="url(#pb5bdab1115)" style="fill: #ffffff"/>
   </g>
   <g id="patch_46">
    <path d="M 327.6 410.4 
Q 327.6 432 327.6 432 
L 504 432 
L 504 410.4 
z
" clip-path="url(#pb5bdab1115)" style="fill: #ffffff"/>
   </g>
   <g id="patch_47">
    <path d="M 378 0 
Q 378 21.6 378 21.6 
L 504 21.6 
L 504 0 
z
" clip-path="url(#pb5bdab1115)" style="fill: #ffffff"/>
   </g>
   <g id="patch_48">
    <path d="M 378 64.8 
Q 378 108 378 108 
L 504 108 
L 504 64.8 
z
" clip-path="url(#pb5bdab1115)" style="fill: #ffffff"/>
   </g>
   <g id="patch_49">
    <path d="M 378 151.2 
Q 378 194.4 378 194.4 
L 504 194.4 
L 504 151.2 
z
" clip-path="url(#pb5bdab1115)" style="fill: #ffffff"/>
   </g>
   <g id="patch_50">
    <path d="M 378 237.6 
Q 378 280.8 378 280.8 
L 504 280.8 
L 504 237.6 
z
" clip-path="url(#pb5bdab1115)" style="fill: #ffffff"/>
   </g>
   <g id="patch_51">
    <path d="M 378 324 
Q 378 367.2 378 367.2 
L 504 367.2 
L 504 324 
z
" clip-path="url(#pb5bdab1115)" style="fill: #ffffff"/>
   </g>
   <g id="patch_52">
    <path d="M 378 410.4 
Q 378 432 378 432 
L 504 432 
L 504 410.4 
z
" clip-path="url(#pb5bdab1115)" style="fill: #ffffff"/>
   </g>
   <g id="patch_53">
    <path d="M 390.6 21.6 
Q 390.6 64.8 390.6 64.8 
L 504 64.8 
L 504 21.6 
z
" clip-path="url(#pb5bdab1115)" style="fill: #ffffff"/>
   </g>
   <g id="patch_54">
    <path d="M 390.6 194.4 
Q 390.6 237.6 390.6 237.6 
L 504 237.6 
L 504 194.4 
z
" clip-path="url(#pb5bdab1115)" style="fill: #ffffff"/>
   </g>
   <g id="patch_55">
    <path d="M 390.6 367.2 
Q 390.6 410.4 390.6 410.4 
L 504 410.4 
L 504 367.2 
z
" clip-path="url(#pb5bdab1115)" style="fill: #ffffff"/>
   </g>
   <g id="patch_56">
    <path d="M 428.4 0 
Q 428.4 108 428.4 108 
L 504 108 
L 504 0 
z
" clip-path="url(#pb5bdab1115)" style="fill: #ffffff"/>
   </g>
   <g id="patch_57">
    <path d="M 428.4 151.2 
Q 428.4 280.8 428.4 280.8 
L 504 280.8 
L 504 151.2 
z
" clip-path="url(#pb5bdab1115)" style="fill: #ffffff"/>
   </g>
   <g id="patch_58">
    <path d="M 428.4 324 
Q 428.4 432 428.4 432 
L 504 432 
L 504 324 
z
" clip-path="url(#pb5bdab1115)" style="fill: #ffffff"/>
   </g>
   <g id="patch_59">
    <path d="M 478.8 0 
Q 478.8 108 478.8 108 
L 504 108 
L 504 0 
z
" clip-path="url(#pb5bdab1115)" style="fill: #ffffff"/>
   </g>
   <g id="patch_60">
    <path d="M 478.8 151.2 
Q 478.8 280.8 478.8 280.8 
L 504 280.8 
L 504 151.2 
z
" clip-path="url(#pb5bdab1115)" style="fill: #ffffff"/>
   </g>
   <g id="patch_61">
    <path d="M 478.8 324 
Q 478.8 432 478.8 432 
L 504 432 
L 504 324 
z
" clip-path="url(#pb5bdab1115)" style="fill: #ffffff"/>
   </g>
   <g id="patch_62">
    <path d="M 491.4 108 
Q 491.4 151.2 491.4 151.2 
L 504 151.2 
L 504 108 
z
" clip-path="url(#pb5bdab1115)" style="fill: #ffffff"/>
   </g>
   <g id="patch_63">
    <path d="M 491.4 280.8 
Q 491.4 324 491.4 324 
L 504 324 
L 504 280.8 
z
" clip-path="url(#pb5bdab1115)" style="fill: #ffffff"/>
   </g>
   <g id="patch_64">
    <path d="M 25.2 0 
Q 25.2 21.6 25.2 21.6 
" clip-path="url(#pb5bdab1115)" style="fill: none; stroke: #000000; stroke-linejoin: miter"/>
   </g>
   <g id="patch_65">
    <path d="M 75.6 0 
Q 75.6 21.6 75.6 21.6 
" clip-path="url(#pb5bdab1115)" style="fill: none; stroke: #000000; stroke-linejoin: miter"/>
   </g>
   <g id="patch_66">
    <path d="M 126 0 
Q 126 21.6 126 21.6 
" clip-path="url(#pb5bdab1115)" style="fill: none; stroke: #000000; stroke-linejoin: miter"/>
   </g>
   <g id="patch_67">
    <path d="M 176.4 0 
Q 176.4 21.6 176.4 21.6 
" clip-path="url(#pb5bdab1115)" style="fill: none; stroke: #000000; stroke-linejoin: miter"/>
   </g>
   <g id="patch_68">
    <path d="M 25.2 64.8 
Q 25.2 194.4 25.2 194.4 
" clip-path="url(#pb5bdab1115)" style="fill: none; stroke: #000000; stroke-linejoin: miter"/>
   </g>
   <g id="patch_69">
    <path d="M 75.6 64.8 
Q 75.6 194.4 75.6 194.4 
" clip-path="url(#pb5bdab1115)" style="fill: none; stroke: #000000; stroke-linejoin: miter"/>
   </g>
   <g id="patch_70">
    <path d="M 126 64.8 
Q 126 108 126 108 
" clip-path="url(#pb5bdab1115)" style="fill: none; stroke: #000000; stroke-linejoin: miter"/>
   </g>
   <g id="patch_71">
    <path d="M 176.4 64.8 
Q 176.4 108 176.4 108 
" clip-path="url(#pb5bdab1115)" style="fill: none; stroke: #000000; stroke-linejoin: miter"/>
   </g>
   <g id="patch_72">
    <path d="M 226.8 0 
Q 226.8 21.6 226.8 21.6 
" clip-path="url(#pb5bdab1115)" style="fill: none; stroke: #000000; stroke-linejoin: miter"/>
   </g>
   <g id="patch_73">
    <path d="M 277.2 0 
Q 277.2 21.6 277.2 21.6 
" clip-path="url(#pb5bdab1115)" style="fill: none; stroke: #000000; stroke-linejoin: miter"/>
   </g>
   <g id="patch_74">
    <path d="M 327.6 0 
Q 327.6 21.6 327.6 21.6 
" clip-path="url(#pb5bdab1115)" style="fill: none; stroke: #000000; stroke-linejoin: miter"/>
   </g>
   <g id="patch_75">
    <path d="M 378 0 
Q 378 21.6 378 21.6 
" clip-path="url(#pb5bdab1115)" style="fill: none; stroke: #000000; stroke-linejoin: miter"/>
   </g>
   <g id="patch_76">
    <path d="M 226.8 64.8 
Q 226.8 108 226.8 108 
" clip-path="url(#pb5bdab1115)" style="fill: none; stroke: #000000; stroke-linejoin: miter"/>
   </g>
   <g id="patch_77">
    <path d="M 277.2 64.8 
Q 277.2 108 277.2 108 
" clip-path="url(#pb5bdab1115)" style="fill: none; stroke: #000000; stroke-linejoin: miter"/>
   </g>
   <g id="patch_78">
    <path d="M 327.6 64.8 
Q 327.6 108 327.6 108 
" clip-path="url(#pb5bdab1115)" style="fill: none; stroke: #000000; stroke-linejoin: miter"/>
   </g>
   <g id="patch_79">
    <path d="M 378 64.8 
Q 378 108 378 108 
" clip-path="url(#pb5bdab1115)" style="fill: none; stroke: #000000; stroke-linejoin: miter"/>
   </g>
   <g id="patch_80">
    <path d="M 428.4 0 
Q 428.4 108 428.4 108 
" clip-path="url(#pb5bdab1115)" style="fill: none; stroke: #000000; stroke-linejoin: miter"/>
   </g>
   <g id="patch_81">
    <path d="M 478.8 0 
Q 478.8 108 478.8 108 
" clip-path="url(#pb5bdab1115)" style="fill: none; stroke: #000000; stroke-linejoin: miter"/>
   </g>
   <g id="patch_82">
    <path d="M 126 151.2 
Q 126 194.4 126 194.4 
" clip-path="url(#pb5bdab1115)" style="fill: none; stroke: #000000; stroke-linejoin: miter"/>
   </g>
   <g id="patch_83">
    <path d="M 176.4 151.2 
Q 176.4 194.4 176.4 194.4 
" clip-path="url(#pb5bdab1115)" style="fill: none; stroke: #000000; stroke-linejoin: miter"/>
   </g>
   <g id="patch_84">
    <path d="M 226.8 151.2 
Q 226.8 194.4 226.8 194.4 
" clip-path="url(#pb5bdab1115)" style="fill: none; stroke: #000000; stroke-linejoin: miter"/>
   </g>
   <g id="patch_85">
    <path d="M 277.2 151.2 
Q 277.2 194.4 277.2 194.4 
" clip-path="url(#pb5bdab1115)" style="fill: none; stroke: #000000; stroke-linejoin: miter"/>
   </g>
   <g id="patch_86">
    <path d="M 327.6 151.2 
Q 327.6 194.4 327.6 194.4 
" clip-path="url(#pb5bdab1115)" style="fill: none; stroke: #000000; stroke-linejoin: miter"/>
   </g>
   <g id="patch_87">
    <path d="M 378 151.2 
Q 378 194.4 378 194.4 
" clip-path="url(#pb5bdab1115)" style="fill: none; stroke: #000000; stroke-linejoin: miter"/>
   </g>
   <g id="patch_88">
    <path d="M 428.4 151.2 
Q 428.4 280.8 428.4 280.8 
" clip-path="url(#pb5bdab1115)" style="fill: none; stroke: #000000; stroke-linejoin: miter"/>
   </g>
   <g id="patch_89">
    <path d="M 478.8 151.2 
Q 478.8 280.8 478.8 280.8 
" clip-path="url(#pb5bdab1115)" style="fill: none; stroke: #000000; stroke-linejoin: miter"/>
   </g>
   <g id="patch_90">
    <path d="M 25.2 237.6 
Q 25.2 367.2 25.2 367.2 
" clip-path="url(#pb5bdab1115)" style="fill: none; stroke: #000000; stroke-linejoin: miter"/>
   </g>
   <g id="patch_91">
    <path d="M 75.6 237.6 
Q 75.6 367.2 75.6 367.2 
" clip-path="url(#pb5bdab1115)" style="fill: none; stroke: #000000; stroke-linejoin: miter"/>
   </g>
   <g id="patch_92">
    <path d="M 126 237.6 
Q 126 280.8 126 280.8 
" clip-path="url(#pb5bdab1115)" style="fill: none; stroke: #000000; stroke-linejoin: miter"/>
   </g>
   <g id="patch_93">
    <path d="M 176.4 237.6 
Q 176.4 280.8 176.4 280.8 
" clip-path="url(#pb5bdab1115)" style="fill: none; stroke: #000000; stroke-linejoin: miter"/>
   </g>
   <g id="patch_94">
    <path d="M 226.8 237.6 
Q 226.8 280.8 226.8 280.8 
" clip-path="url(#pb5bdab1115)" style="fill: none; stroke: #000000; stroke-linejoin: miter"/>
   </g>
   <g id="patch_95">
    <path d="M 277.2 237.6 
Q 277.2 280.8 277.2 280.8 
" clip-path="url(#pb5bdab1115)" style="fill: none; stroke: #000000; stroke-linejoin: miter"/>
   </g>
   <g id="patch_96">
    <path d="M 327.6 237.6 
Q 327.6 280.8 327.6 280.8 
" clip-path="url(#pb5bdab1115)" style="fill: none; stroke: #000000; stroke-linejoin: miter"/>
   </g>
   <g id="patch_97">
    <path d="M 378 237.6 
Q 378 280.8 378 280.8 
" clip-path="url(#pb5bdab1115)" style="fill: none; stroke: #000000; stroke-linejoin: miter"/>
   </g>
   <g id="patch_98">
    <path d="M 126 324 
Q 126 367.2 126 367.2 
" clip-path="url(#pb5bdab1115)" style="fill: none; stroke: #000000; stroke-linejoin: miter"/>
   </g>
   <g id="patch_99">
    <path d="M 176.4 324 
Q 176.4 367.2 176.4 367.2 
" clip-path="url(#pb5bdab1115)" style="fill: none; stroke: #000000; stroke-linejoin: miter"/>
   </g>
   <g id="patch_100">
    <path d="M 226.8 324 
Q 226.8 367.2 226.8 367.2 
" clip-path="url(#pb5bdab1115)" style="fill: none; stroke: #000000; stroke-linejoin: miter"/>
   </g>
   <g id="patch_101">
    <path d="M 277.2 324 
Q 277.2 367.2 277.2 367.2 
" clip-path="url(#pb5bdab1115)" style="fill: none; stroke: #000000; stroke-linejoin: miter"/>
   </g>
   <g id="patch_102">
    <path d="M 327.6 324 
Q 327.6 367.2 327.6 367.2 
" clip-path="url(#pb5bdab1115)" style="fill: none; stroke: #000000; stroke-linejoin: miter"/>
   </g>
   <g id="patch_103">
    <path d="M 378 324 
Q 378 367.2 378 367.2 
" clip-path="url(#pb5bdab1115)" style="fill: none; stroke: #000000; stroke-linejoin: miter"/>
   </g>
   <g id="patch_104">
    <path d="M 428.4 324 
Q 428.4 432 428.4 432 
" clip-path="url(#pb5bdab1115)" style="fill: none; stroke: #000000; stroke-linejoin: miter"/>
   </g>
   <g id="patch_105">
    <path d="M 478.8 324 
Q 478.8 432 478.8 432 
" clip-path="url(#pb5bdab1115)" style="fill: none; stroke: #000000; stroke-linejoin: miter"/>
   </g>
   <g id="patch_106">
    <path d="M 25.2 410.4 
Q 25.2 432 25.2 432 
" clip-path="url(#pb5bdab1115)" style="fill: none; stroke: #000000; stroke-linejoin: miter"/>
   </g>
   <g id="patch_107">
    <path d="M 75.6 410.4 
Q 75.6 432 75.6 432 
" clip-path="url(#pb5bdab1115)" style="fill: none; stroke: #000000; stroke-linejoin: miter"/>
   </g>
   <g id="patch_108">
    <path d="M 126 410.4 
Q 126 432 126 432 
" clip-path="url(#pb5bdab1115)" style="fill: none; stroke: #000000; stroke-linejoin: miter"/>
   </g>
   <g id="patch_109">
    <path d="M 176.4 410.4 
Q 176.4 432 176.4 432 
" clip-path="url(#pb5bdab1115)" style="fill: none; stroke: #000000; stroke-linejoin: miter"/>
   </g>
   <g id="patch_110">
    <path d="M 226.8 410.4 
Q 226.8 432 226.8 432 
" clip-path="url(#pb5bdab1115)" style="fill: none; stroke: #000000; stroke-linejoin: miter"/>
   </g>
   <g id="patch_111">
    <path d="M 277.2 410.4 
Q 277.2 432 277.2 432 
" clip-path="url(#pb5bdab1115)" style="fill: none; stroke: #000000; stroke-linejoin: miter"/>
   </g>
   <g id="patch_112">
    <path d="M 327.6 410.4 
Q 327.6 432 327.6 432 
" clip-path="url(#pb5bdab1115)" style="fill: none; stroke: #000000; stroke-linejoin: miter"/>
   </g>
   <g id="patch_113">
    <path d="M 378 410.4 
Q 378 432 378 432 
" clip-path="url(#pb5bdab1115)" style="fill: none; stroke: #000000; stroke-linejoin: miter"/>
   </g>
   <g id="patch_114">
    <path d="M 12.6 64.8 
L 12.6 21.6 
L 189 21.6 
L 189 64.8 
z
" clip-path="url(#pb5bdab1115)" style="fill: #ffffff; stroke: #000000; stroke-linejoin: miter"/>
   </g>
   <g id="patch_115">
    <path d="M 214.2 64.8 
L 214.2 21.6 
L 390.6 21.6 
L 390.6 64.8 
z
" clip-path="url(#pb5bdab1115)" style="fill: #ffffff; stroke: #000000; stroke-linejoin: miter"/>
   </g>
   <g id="patch_116">
    <path d="M 113.4 151.2 
L 113.4 108 
L 289.8 108 
L 289.8 151.2 
z
" clip-path="url(#pb5bdab1115)" style="fill: #ffffff; stroke: #000000; stroke-linejoin: miter"/>
   </g>
   <g id="patch_117">
    <path d="M 315 151.2 
L 315 108 
L 491.4 108 
L 491.4 151.2 
z
" clip-path="url(#pb5bdab1115)" style="fill: #ffffff; stroke: #000000; stroke-linejoin: miter"/>
   </g>
   <g id="patch_118">
    <path d="M 12.6 237.6 
L 12.6 194.4 
L 189 194.4 
L 189 237.6 
z
" clip-path="url(#pb5bdab1115)" style="fill: #ffffff; stroke: #000000; stroke-linejoin: miter"/>
   </g>
   <g id="patch_119">
    <path d="M 214.2 237.6 
L 214.2 194.4 
L 390.6 194.4 
L 390.6 237.6 
z
" clip-path="url(#pb5bdab1115)" style="fill: #ffffff; stroke: #000000; stroke-linejoin: miter"/>
   </g>
   <g id="patch_120">
    <path d="M 113.4 324 
L 113.4 280.8 
L 289.8 280.8 
L 289.8 324 
z
" clip-path="url(#pb5bdab1115)" style="fill: #ffffff; stroke: #000000; stroke-linejoin: miter"/>
   </g>
   <g id="patch_121">
    <path d="M 315 324 
L 315 280.8 
L 491.4 280.8 
L 491.4 324 
z
" clip-path="url(#pb5bdab1115)" style="fill: #ffffff; stroke: #000000; stroke-linejoin: miter"/>
   </g>
   <g id="patch_122">
    <path d="M 12.6 410.4 
L 12.6 367.2 
L 189 367.2 
L 189 410.4 
z
" clip-path="url(#pb5bdab1115)" style="fill: #ffffff; stroke: #000000; stroke-linejoin: miter"/>
   </g>
   <g id="patch_123">
    <path d="M 214.2 410.4 
L 214.2 367.2 
L 390.6 367.2 
L 390.6 410.4 
z
" clip-path="url(#pb5bdab1115)" style="fill: #ffffff; stroke: #000000; stroke-linejoin: miter"/>
   </g>
   <g id="text_1">
    <!-- key -->
    <g transform="translate(28.35 12.998437) scale(0.1 -0.1)">
     <defs>
      <path id="DejaVuSans-4e" d="M 581 4863 
L 1159 4863 
L 1159 1991 
L 2875 3500 
L 3609 3500 
L 1753 1863 
L 3688 0 
L 2938 0 
L 1159 1709 
L 1159 0 
L 581 0 
L 581 4863 
z
" transform="scale(0.015625)"/>
      <path id="DejaVuSans-48" d="M 3597 1894 
L 3597 1613 
L 953 1613 
Q 991 1019 1311 708 
Q 1631 397 2203 397 
Q 2534 397 2845 478 
Q 3156 559 3463 722 
L 3463 178 
Q 3153 47 2828 -22 
Q 2503 -91 2169 -91 
Q 1331 -91 842 396 
Q 353 884 353 1716 
Q 353 2575 817 3079 
Q 1281 3584 2069 3584 
Q 2775 3584 3186 3129 
Q 3597 2675 3597 1894 
z
M 3022 2063 
Q 3016 2534 2758 2815 
Q 2500 3097 2075 3097 
Q 1594 3097 1305 2825 
Q 1016 2553 972 2059 
L 3022 2063 
z
" transform="scale(0.015625)"/>
      <path id="DejaVuSans-5c" d="M 2059 -325 
Q 1816 -950 1584 -1140 
Q 1353 -1331 966 -1331 
L 506 -1331 
L 506 -850 
L 844 -850 
Q 1081 -850 1212 -737 
Q 1344 -625 1503 -206 
L 1606 56 
L 191 3500 
L 800 3500 
L 1894 763 
L 2988 3500 
L 3597 3500 
L 2059 -325 
z
" transform="scale(0.015625)"/>
     </defs>
     <use xlink:href="#DejaVuSans-4e"/>
     <use xlink:href="#DejaVuSans-48" transform="translate(54.34375 0)"/>
     <use xlink:href="#DejaVuSans-5c" transform="translate(115.875 0)"/>
    </g>
   </g>
   <g id="text_2">
    <!-- pos -->
    <g transform="translate(78.75 12.997656) scale(0.1 -0.1)">
     <defs>
      <path id="DejaVuSans-53" d="M 1159 525 
L 1159 -1331 
L 581 -1331 
L 581 3500 
L 1159 3500 
L 1159 2969 
Q 1341 3281 1617 3432 
Q 1894 3584 2278 3584 
Q 2916 3584 3314 3078 
Q 3713 2572 3713 1747 
Q 3713 922 3314 415 
Q 2916 -91 2278 -91 
Q 1894 -91 1617 61 
Q 1341 213 1159 525 
z
M 3116 1747 
Q 3116 2381 2855 2742 
Q 2594 3103 2138 3103 
Q 1681 3103 1420 2742 
Q 1159 2381 1159 1747 
Q 1159 1113 1420 752 
Q 1681 391 2138 391 
Q 2594 391 2855 752 
Q 3116 1113 3116 1747 
z
" transform="scale(0.015625)"/>
      <path id="DejaVuSans-52" d="M 1959 3097 
Q 1497 3097 1228 2736 
Q 959 2375 959 1747 
Q 959 1119 1226 758 
Q 1494 397 1959 397 
Q 2419 397 2687 759 
Q 2956 1122 2956 1747 
Q 2956 2369 2687 2733 
Q 2419 3097 1959 3097 
z
M 1959 3584 
Q 2709 3584 3137 3096 
Q 3566 2609 3566 1747 
Q 3566 888 3137 398 
Q 2709 -91 1959 -91 
Q 1206 -91 779 398 
Q 353 888 353 1747 
Q 353 2609 779 3096 
Q 1206 3584 1959 3584 
z
" transform="scale(0.015625)"/>
      <path id="DejaVuSans-56" d="M 2834 3397 
L 2834 2853 
Q 2591 2978 2328 3040 
Q 2066 3103 1784 3103 
Q 1356 3103 1142 2972 
Q 928 2841 928 2578 
Q 928 2378 1081 2264 
Q 1234 2150 1697 2047 
L 1894 2003 
Q 2506 1872 2764 1633 
Q 3022 1394 3022 966 
Q 3022 478 2636 193 
Q 2250 -91 1575 -91 
Q 1294 -91 989 -36 
Q 684 19 347 128 
L 347 722 
Q 666 556 975 473 
Q 1284 391 1588 391 
Q 1994 391 2212 530 
Q 2431 669 2431 922 
Q 2431 1156 2273 1281 
Q 2116 1406 1581 1522 
L 1381 1569 
Q 847 1681 609 1914 
Q 372 2147 372 2553 
Q 372 3047 722 3315 
Q 1072 3584 1716 3584 
Q 2034 3584 2315 3537 
Q 2597 3491 2834 3397 
z
" transform="scale(0.015625)"/>
     </defs>
     <use xlink:href="#DejaVuSans-53"/>
     <use xlink:href="#DejaVuSans-52" transform="translate(63.484375 0)"/>
     <use xlink:href="#DejaVuSans-56" transform="translate(124.671875 0)"/>
    </g>
   </g>
   <g id="text_3">
    <!-- key -->
    <g transform="translate(129.15 12.998437) scale(0.1 -0.1)">
     <use xlink:href="#DejaVuSans-4e"/>
     <use xlink:href="#DejaVuSans-48" transform="translate(54.34375 0)"/>
     <use xlink:href="#DejaVuSans-5c" transform="translate(115.875 0)"/>
    </g>
   </g>
   <g id="text_4">
    <!-- pos -->
    <g transform="translate(179.55 12.997656) scale(0.1 -0.1)">
     <use xlink:href="#DejaVuSans-53"/>
     <use xlink:href="#DejaVuSans-52" transform="translate(63.484375 0)"/>
     <use xlink:href="#DejaVuSans-56" transform="translate(124.671875 0)"/>
    </g>
   </g>
   <g id="text_5">
    <!-- key -->
    <g transform="translate(28.35 77.798437) scale(0.1 -0.1)">
     <use xlink:href="#DejaVuSans-4e"/>
     <use xlink:href="#DejaVuSans-48" transform="translate(54.34375 0)"/>
     <use xlink:href="#DejaVuSans-5c" transform="translate(115.875 0)"/>
    </g>
   </g>
   <g id="text_6">
    <!-- pos -->
    <g transform="translate(78.75 77.797656) scale(0.1 -0.1)">
     <use xlink:href="#DejaVuSans-53"/>
     <use xlink:href="#DejaVuSans-52" transform="translate(63.484375 0)"/>
     <use xlink:href="#DejaVuSans-56" transform="translate(124.671875 0)"/>
    </g>
   </g>
   <g id="text_7">
    <!-- key -->
    <g transform="translate(129.15 77.798437) scale(0.1 -0.1)">
     <use xlink:href="#DejaVuSans-4e"/>
     <use xlink:href="#DejaVuSans-48" transform="translate(54.34375 0)"/>
     <use xlink:href="#DejaVuSans-5c" transform="translate(115.875 0)"/>
    </g>
   </g>
   <g id="text_8">
    <!-- pos -->
    <g transform="translate(179.55 77.797656) scale(0.1 -0.1)">
     <use xlink:href="#DejaVuSans-53"/>
     <use xlink:href="#DejaVuSans-52" transform="translate(63.484375 0)"/>
     <use xlink:href="#DejaVuSans-56" transform="translate(124.671875 0)"/>
    </g>
   </g>
   <g id="text_9">
    <!-- key -->
    <g transform="translate(229.95 12.998437) scale(0.1 -0.1)">
     <use xlink:href="#DejaVuSans-4e"/>
     <use xlink:href="#DejaVuSans-48" transform="translate(54.34375 0)"/>
     <use xlink:href="#DejaVuSans-5c" transform="translate(115.875 0)"/>
    </g>
   </g>
   <g id="text_10">
    <!-- pos -->
    <g transform="translate(280.35 12.997656) scale(0.1 -0.1)">
     <use xlink:href="#DejaVuSans-53"/>
     <use xlink:href="#DejaVuSans-52" transform="translate(63.484375 0)"/>
     <use xlink:href="#DejaVuSans-56" transform="translate(124.671875 0)"/>
    </g>
   </g>
   <g id="text_11">
    <!-- key -->
    <g transform="translate(330.75 12.998437) scale(0.1 -0.1)">
     <use xlink:href="#DejaVuSans-4e"/>
     <use xlink:href="#DejaVuSans-48" transform="translate(54.34375 0)"/>
     <use xlink:href="#DejaVuSans-5c" transform="translate(115.875 0)"/>
    </g>
   </g>
   <g id="text_12">
    <!-- pos -->
    <g transform="translate(381.15 12.997656) scale(0.1 -0.1)">
     <use xlink:href="#DejaVuSans-53"/>
     <use xlink:href="#DejaVuSans-52" transform="translate(63.484375 0)"/>
     <use xlink:href="#DejaVuSans-56" transform="translate(124.671875 0)"/>
    </g>
   </g>
   <g id="text_13">
    <!-- key -->
    <g transform="translate(229.95 77.798437) scale(0.1 -0.1)">
     <use xlink:href="#DejaVuSans-4e"/>
     <use xlink:href="#DejaVuSans-48" transform="translate(54.34375 0)"/>
     <use xlink:href="#DejaVuSans-5c" transform="translate(115.875 0)"/>
    </g>
   </g>
   <g id="text_14">
    <!-- pos -->
    <g transform="translate(280.35 77.797656) scale(0.1 -0.1)">
     <use xlink:href="#DejaVuSans-53"/>
     <use xlink:href="#DejaVuSans-52" transform="translate(63.484375 0)"/>
     <use xlink:href="#DejaVuSans-56" transform="translate(124.671875 0)"/>
    </g>
   </g>
   <g id="text_15">
    <!-- key -->
    <g transform="translate(330.75 77.798437) scale(0.1 -0.1)">
     <use xlink:href="#DejaVuSans-4e"/>
     <use xlink:href="#DejaVuSans-48" transform="translate(54.34375 0)"/>
     <use xlink:href="#DejaVuSans-5c" transform="translate(115.875 0)"/>
    </g>
   </g>
   <g id="text_16">
    <!-- pos -->
    <g transform="translate(381.15 77.797656) scale(0.1 -0.1)">
     <use xlink:href="#DejaVuSans-53"/>
     <use xlink:href="#DejaVuSans-52" transform="translate(63.484375 0)"/>
     <use xlink:href="#DejaVuSans-56" transform="translate(124.671875 0)"/>
    </g>
   </g>
   <g id="text_17">
    <!-- key -->
    <g transform="translate(431.55 12.998437) scale(0.1 -0.1)">
     <use xlink:href="#DejaVuSans-4e"/>
     <use xlink:href="#DejaVuSans-48" transform="translate(54.34375 0)"/>
     <use xlink:href="#DejaVuSans-5c" transform="translate(115.875 0)"/>
    </g>
   </g>
   <g id="text_18">
    <!-- pos -->
    <g transform="translate(481.95 12.997656) scale(0.1 -0.1)">
     <use xlink:href="#DejaVuSans-53"/>
     <use xlink:href="#DejaVuSans-52" transform="translate(63.484375 0)"/>
     <use xlink:href="#DejaVuSans-56" transform="translate(124.671875 0)"/>
    </g>
   </g>
   <g id="text_19">
    <!-- key -->
    <g transform="translate(129.15 164.198437) scale(0.1 -0.1)">
     <use xlink:href="#DejaVuSans-4e"/>
     <use xlink:href="#DejaVuSans-48" transform="translate(54.34375 0)"/>
     <use xlink:href="#DejaVuSans-5c" transform="translate(115.875 0)"/>
    </g>
   </g>
   <g id="text_20">
    <!-- pos -->
    <g transform="translate(179.55 164.197656) scale(0.1 -0.1)">
     <use xlink:href="#DejaVuSans-53"/>
     <use xlink:href="#DejaVuSans-52" transform="translate(63.484375 0)"/>
     <use xlink:href="#DejaVuSans-56" transform="translate(124.671875 0)"/>
    </g>
   </g>
   <g id="text_21">
    <!-- key -->
    <g transform="translate(229.95 164.198437) scale(0.1 -0.1)">
     <use xlink:href="#DejaVuSans-4e"/>
     <use xlink:href="#DejaVuSans-48" transform="translate(54.34375 0)"/>
     <use xlink:href="#DejaVuSans-5c" transform="translate(115.875 0)"/>
    </g>
   </g>
   <g id="text_22">
    <!-- pos -->
    <g transform="translate(280.35 164.197656) scale(0.1 -0.1)">
     <use xlink:href="#DejaVuSans-53"/>
     <use xlink:href="#DejaVuSans-52" transform="translate(63.484375 0)"/>
     <use xlink:href="#DejaVuSans-56" transform="translate(124.671875 0)"/>
    </g>
   </g>
   <g id="text_23">
    <!-- key -->
    <g transform="translate(330.75 164.198437) scale(0.1 -0.1)">
     <use xlink:href="#DejaVuSans-4e"/>
     <use xlink:href="#DejaVuSans-48" transform="translate(54.34375 0)"/>
     <use xlink:href="#DejaVuSans-5c" transform="translate(115.875 0)"/>
    </g>
   </g>
   <g id="text_24">
    <!-- pos -->
    <g transform="translate(381.15 164.197656) scale(0.1 -0.1)">
     <use xlink:href="#DejaVuSans-53"/>
     <use xlink:href="#DejaVuSans-52" transform="translate(63.484375 0)"/>
     <use xlink:href="#DejaVuSans-56" transform="translate(124.671875 0)"/>
    </g>
   </g>
   <g id="text_25">
    <!-- key -->
    <g transform="translate(431.55 164.198437) scale(0.1 -0.1)">
     <use xlink:href="#DejaVuSans-4e"/>
     <use xlink:href="#DejaVuSans-48" transform="translate(54.34375 0)"/>
     <use xlink:href="#DejaVuSans-5c" transform="translate(115.875 0)"/>
    </g>
   </g>
   <g id="text_26">
    <!-- pos -->
    <g transform="translate(481.95 164.197656) scale(0.1 -0.1)">
     <use xlink:href="#DejaVuSans-53"/>
     <use xlink:href="#DejaVuSans-52" transform="translate(63.484375 0)"/>
     <use xlink:href="#DejaVuSans-56" transform="translate(124.671875 0)"/>
    </g>
   </g>
   <g id="text_27">
    <!-- key -->
    <g transform="translate(28.35 250.598437) scale(0.1 -0.1)">
     <use xlink:href="#DejaVuSans-4e"/>
     <use xlink:href="#DejaVuSans-48" transform="translate(54.34375 0)"/>
     <use xlink:href="#DejaVuSans-5c" transform="translate(115.875 0)"/>
    </g>
   </g>
   <g id="text_28">
    <!-- pos -->
    <g transform="translate(78.75 250.597656) scale(0.1 -0.1)">
     <use xlink:href="#DejaVuSans-53"/>
     <use xlink:href="#DejaVuSans-52" transform="translate(63.484375 0)"/>
     <use xlink:href="#DejaVuSans-56" transform="translate(124.671875 0)"/>
    </g>
   </g>
   <g id="text_29">
    <!-- key -->
    <g transform="translate(129.15 250.598437) scale(0.1 -0.1)">
     <use xlink:href="#DejaVuSans-4e"/>
     <use xlink:href="#DejaVuSans-48" transform="translate(54.34375 0)"/>
     <use xlink:href="#DejaVuSans-5c" transform="translate(115.875 0)"/>
    </g>
   </g>
   <g id="text_30">
    <!-- pos -->
    <g transform="translate(179.55 250.597656) scale(0.1 -0.1)">
     <use xlink:href="#DejaVuSans-53"/>
     <use xlink:href="#DejaVuSans-52" transform="translate(63.484375 0)"/>
     <use xlink:href="#DejaVuSans-56" transform="translate(124.671875 0)"/>
    </g>
   </g>
   <g id="text_31">
    <!-- key -->
    <g transform="translate(229.95 250.598437) scale(0.1 -0.1)">
     <use xlink:href="#DejaVuSans-4e"/>
     <use xlink:href="#DejaVuSans-48" transform="translate(54.34375 0)"/>
     <use xlink:href="#DejaVuSans-5c" transform="translate(115.875 0)"/>
    </g>
   </g>
   <g id="text_32">
    <!-- pos -->
    <g transform="translate(280.35 250.597656) scale(0.1 -0.1)">
     <use xlink:href="#DejaVuSans-53"/>
     <use xlink:href="#DejaVuSans-52" transform="translate(63.484375 0)"/>
     <use xlink:href="#DejaVuSans-56" transform="translate(124.671875 0)"/>
    </g>
   </g>
   <g id="text_33">
    <!-- key -->
    <g transform="translate(330.75 250.598437) scale(0.1 -0.1)">
     <use xlink:href="#DejaVuSans-4e"/>
     <use xlink:href="#DejaVuSans-48" transform="translate(54.34375 0)"/>
     <use xlink:href="#DejaVuSans-5c" transform="translate(115.875 0)"/>
    </g>
   </g>
   <g id="text_34">
    <!-- pos -->
    <g transform="translate(381.15 250.597656) scale(0.1 -0.1)">
     <use xlink:href="#DejaVuSans-53"/>
     <use xlink:href="#DejaVuSans-52" transform="translate(63.484375 0)"/>
     <use xlink:href="#DejaVuSans-56" transform="translate(124.671875 0)"/>
    </g>
   </g>
   <g id="text_35">
    <!-- key -->
    <g transform="translate(129.15 336.998438) scale(0.1 -0.1)">
     <use xlink:href="#DejaVuSans-4e"/>
     <use xlink:href="#DejaVuSans-48" transform="translate(54.34375 0)"/>
     <use xlink:href="#DejaVuSans-5c" transform="translate(115.875 0)"/>
    </g>
   </g>
   <g id="text_36">
    <!-- pos -->
    <g transform="translate(179.55 336.997656) scale(0.1 -0.1)">
     <use xlink:href="#DejaVuSans-53"/>
     <use xlink:href="#DejaVuSans-52" transform="translate(63.484375 0)"/>
     <use xlink:href="#DejaVuSans-56" transform="translate(124.671875 0)"/>
    </g>
   </g>
   <g id="text_37">
    <!-- key -->
    <g transform="translate(229.95 336.998438) scale(0.1 -0.1)">
     <use xlink:href="#DejaVuSans-4e"/>
     <use xlink:href="#DejaVuSans-48" transform="translate(54.34375 0)"/>
     <use xlink:href="#DejaVuSans-5c" transform="translate(115.875 0)"/>
    </g>
   </g>
   <g id="text_38">
    <!-- pos -->
    <g transform="translate(280.35 336.997656) scale(0.1 -0.1)">
     <use xlink:href="#DejaVuSans-53"/>
     <use xlink:href="#DejaVuSans-52" transform="translate(63.484375 0)"/>
     <use xlink:href="#DejaVuSans-56" transform="translate(124.671875 0)"/>
    </g>
   </g>
   <g id="text_39">
    <!-- key -->
    <g transform="translate(330.75 336.998438) scale(0.1 -0.1)">
     <use xlink:href="#DejaVuSans-4e"/>
     <use xlink:href="#DejaVuSans-48" transform="translate(54.34375 0)"/>
     <use xlink:href="#DejaVuSans-5c" transform="translate(115.875 0)"/>
    </g>
   </g>
   <g id="text_40">
    <!-- pos -->
    <g transform="translate(381.15 336.997656) scale(0.1 -0.1)">
     <use xlink:href="#DejaVuSans-53"/>
     <use xlink:href="#DejaVuSans-52" transform="translate(63.484375 0)"/>
     <use xlink:href="#DejaVuSans-56" transform="translate(124.671875 0)"/>
    </g>
   </g>
   <g id="text_41">
    <!-- key -->
    <g transform="translate(431.55 336.998438) scale(0.1 -0.1)">
     <use xlink:href="#DejaVuSans-4e"/>
     <use xlink:href="#DejaVuSans-48" transform="translate(54.34375 0)"/>
     <use xlink:href="#DejaVuSans-5c" transform="translate(115.875 0)"/>
    </g>
   </g>
   <g id="text_42">
    <!-- pos -->
    <g transform="translate(481.95 336.997656) scale(0.1 -0.1)">
     <use xlink:href="#DejaVuSans-53"/>
     <use xlink:href="#DejaVuSans-52" transform="translate(63.484375 0)"/>
     <use xlink:href="#DejaVuSans-56" transform="translate(124.671875 0)"/>
    </g>
   </g>
   <g id="text_43">
    <!-- key -->
    <g transform="translate(28.35 423.398438) scale(0.1 -0.1)">
     <use xlink:href="#DejaVuSans-4e"/>
     <use xlink:href="#DejaVuSans-48" transform="translate(54.34375 0)"/>
     <use xlink:href="#DejaVuSans-5c" transform="translate(115.875 0)"/>
    </g>
   </g>
   <g id="text_44">
    <!-- pos -->
    <g transform="translate(78.75 423.397656) scale(0.1 -0.1)">
     <use xlink:href="#DejaVuSans-53"/>
     <use xlink:href="#DejaVuSans-52" transform="translate(63.484375 0)"/>
     <use xlink:href="#DejaVuSans-56" transform="translate(124.671875 0)"/>
    </g>
   </g>
   <g id="text_45">
    <!-- key -->
    <g transform="translate(129.15 423.398438) scale(0.1 -0.1)">
     <use xlink:href="#DejaVuSans-4e"/>
     <use xlink:href="#DejaVuSans-48" transform="translate(54.34375 0)"/>
     <use xlink:href="#DejaVuSans-5c" transform="translate(115.875 0)"/>
    </g>
   </g>
   <g id="text_46">
    <!-- pos -->
    <g transform="translate(179.55 423.397656) scale(0.1 -0.1)">
     <use xlink:href="#DejaVuSans-53"/>
     <use xlink:href="#DejaVuSans-52" transform="translate(63.484375 0)"/>
     <use xlink:href="#DejaVuSans-56" transform="translate(124.671875 0)"/>
    </g>
   </g>
   <g id="text_47">
    <!-- key -->
    <g transform="translate(229.95 423.398438) scale(0.1 -0.1)">
     <use xlink:href="#DejaVuSans-4e"/>
     <use xlink:href="#DejaVuSans-48" transform="translate(54.34375 0)"/>
     <use xlink:href="#DejaVuSans-5c" transform="translate(115.875 0)"/>
    </g>
   </g>
   <g id="text_48">
    <!-- pos -->
    <g transform="translate(280.35 423.397656) scale(0.1 -0.1)">
     <use xlink:href="#DejaVuSans-53"/>
     <use xlink:href="#DejaVuSans-52" transform="translate(63.484375 0)"/>
     <use xlink:href="#DejaVuSans-56" transform="translate(124.671875 0)"/>
    </g>
   </g>
   <g id="text_49">
    <!-- key -->
    <g transform="translate(330.75 423.398438) scale(0.1 -0.1)">
     <use xlink:href="#DejaVuSans-4e"/>
     <use xlink:href="#DejaVuSans-48" transform="translate(54.34375 0)"/>
     <use xlink:href="#DejaVuSans-5c" transform="translate(115.875 0)"/>
    </g>
   </g>
   <g id="text_50">
    <!-- pos -->
    <g transform="translate(381.15 423.397656) scale(0.1 -0.1)">
     <use xlink:href="#DejaVuSans-53"/>
     <use xlink:href="#DejaVuSans-52" transform="translate(63.484375 0)"/>
     <use xlink:href="#DejaVuSans-56" transform="translate(124.671875 0)"/>
    </g>
   </g>
   <g id="text_51">
    <!-- sort2 -->
    <g transform="translate(87.939063 45.797656) scale(0.1 -0.1)">
     <defs>
      <path id="DejaVuSans-55" d="M 2631 2963 
Q 2534 3019 2420 3045 
Q 2306 3072 2169 3072 
Q 1681 3072 1420 2755 
Q 1159 2438 1159 1844 
L 1159 0 
L 581 0 
L 581 3500 
L 1159 3500 
L 1159 2956 
Q 1341 3275 1631 3429 
Q 1922 3584 2338 3584 
Q 2397 3584 2469 3576 
Q 2541 3569 2628 3553 
L 2631 2963 
z
" transform="scale(0.015625)"/>
      <path id="DejaVuSans-57" d="M 1172 4494 
L 1172 3500 
L 2356 3500 
L 2356 3053 
L 1172 3053 
L 1172 1153 
Q 1172 725 1289 603 
Q 1406 481 1766 481 
L 2356 481 
L 2356 0 
L 1766 0 
Q 1100 0 847 248 
Q 594 497 594 1153 
L 594 3053 
L 172 3053 
L 172 3500 
L 594 3500 
L 594 4494 
L 1172 4494 
z
" transform="scale(0.015625)"/>
      <path id="DejaVuSans-15" d="M 1228 531 
L 3431 531 
L 3431 0 
L 469 0 
L 469 531 
Q 828 903 1448 1529 
Q 2069 2156 2228 2338 
Q 2531 2678 2651 2914 
Q 2772 3150 2772 3378 
Q 2772 3750 2511 3984 
Q 2250 4219 1831 4219 
Q 1534 4219 1204 4116 
Q 875 4013 500 3803 
L 500 4441 
Q 881 4594 1212 4672 
Q 1544 4750 1819 4750 
Q 2544 4750 2975 4387 
Q 3406 4025 3406 3419 
Q 3406 3131 3298 2873 
Q 3191 2616 2906 2266 
Q 2828 2175 2409 1742 
Q 1991 1309 1228 531 
z
" transform="scale(0.015625)"/>
     </defs>
     <use xlink:href="#DejaVuSans-56"/>
     <use xlink:href="#DejaVuSans-52" transform="translate(52.09375 0)"/>
     <use xlink:href="#DejaVuSans-55" transform="translate(113.28125 0)"/>
     <use xlink:href="#DejaVuSans-57" transform="translate(154.390625 0)"/>
     <use xlink:href="#DejaVuSans-15" transform="translate(193.59375 0)"/>
    </g>
   </g>
   <g id="text_52">
    <!-- sort2 -->
    <g transform="translate(289.539063 45.797656) scale(0.1 -0.1)">
     <use xlink:href="#DejaVuSans-56"/>
     <use xlink:href="#DejaVuSans-52" transform="translate(52.09375 0)"/>
     <use xlink:href="#DejaVuSans-55" transform="translate(113.28125 0)"/>
     <use xlink:href="#DejaVuSans-57" transform="translate(154.390625 0)"/>
     <use xlink:href="#DejaVuSans-15" transform="translate(193.59375 0)"/>
    </g>
   </g>
   <g id="text_53">
    <!-- sort2 -->
    <g transform="translate(188.739063 132.197656) scale(0.1 -0.1)">
     <use xlink:href="#DejaVuSans-56"/>
     <use xlink:href="#DejaVuSans-52" transform="translate(52.09375 0)"/>
     <use xlink:href="#DejaVuSans-55" transform="translate(113.28125 0)"/>
     <use xlink:href="#DejaVuSans-57" transform="translate(154.390625 0)"/>
     <use xlink:href="#DejaVuSans-15" transform="translate(193.59375 0)"/>
    </g>
   </g>
   <g id="text_54">
    <!-- sort2 -->
    <g transform="translate(390.339063 132.197656) scale(0.1 -0.1)">
     <use xlink:href="#DejaVuSans-56"/>
     <use xlink:href="#DejaVuSans-52" transform="translate(52.09375 0)"/>
     <use xlink:href="#DejaVuSans-55" transform="translate(113.28125 0)"/>
     <use xlink:href="#DejaVuSans-57" transform="translate(154.390625 0)"/>
     <use xlink:href="#DejaVuSans-15" transform="translate(193.59375 0)"/>
    </g>
   </g>
   <g id="text_55">
    <!-- sort2 -->
    <g transform="translate(87.939063 218.597656) scale(0.1 -0.1)">
     <use xlink:href="#DejaVuSans-56"/>
     <use xlink:href="#DejaVuSans-52" transform="translate(52.09375 0)"/>
     <use xlink:href="#DejaVuSans-55" transform="translate(113.28125 0)"/>
     <use xlink:href="#DejaVuSans-57" transform="translate(154.390625 0)"/>
     <use xlink:href="#DejaVuSans-15" transform="translate(193.59375 0)"/>
    </g>
   </g>
   <g id="text_56">
    <!-- sort2 -->
    <g transform="translate(289.539063 218.597656) scale(0.1 -0.1)">
     <use xlink:href="#DejaVuSans-56"/>
     <use xlink:href="#DejaVuSans-52" transform="translate(52.09375 0)"/>
     <use xlink:href="#DejaVuSans-55" transform="translate(113.28125 0)"/>
     <use xlink:href="#DejaVuSans-57" transform="translate(154.390625 0)"/>
     <use xlink:href="#DejaVuSans-15" transform="translate(193.59375 0)"/>
    </g>
   </g>
   <g id="text_57">
    <!-- sort2 -->
    <g transform="translate(188.739063 304.997656) scale(0.1 -0.1)">
     <use xlink:href="#DejaVuSans-56"/>
     <use xlink:href="#DejaVuSans-52" transform="translate(52.09375 0)"/>
     <use xlink:href="#DejaVuSans-55" transform="translate(113.28125 0)"/>
     <use xlink:href="#DejaVuSans-57" transform="translate(154.390625 0)"/>
     <use xlink:href="#DejaVuSans-15" transform="translate(193.59375 0)"/>
    </g>
   </g>
   <g id="text_58">
    <!-- sort2 -->
    <g transform="translate(390.339063 304.997656) scale(0.1 -0.1)">
     <use xlink:href="#DejaVuSans-56"/>
     <use xlink:href="#DejaVuSans-52" transform="translate(52.09375 0)"/>
     <use xlink:href="#DejaVuSans-55" transform="translate(113.28125 0)"/>
     <use xlink:href="#DejaVuSans-57" transform="translate(154.390625 0)"/>
     <use xlink:href="#DejaVuSans-15" transform="translate(193.59375 0)"/>
    </g>
   </g>
   <g id="text_59">
    <!-- sort2 -->
    <g transform="translate(87.939063 391.397656) scale(0.1 -0.1)">
     <use xlink:href="#DejaVuSans-56"/>
     <use xlink:href="#DejaVuSans-52" transform="translate(52.09375 0)"/>
     <use xlink:href="#DejaVuSans-55" transform="translate(113.28125 0)"/>
     <use xlink:href="#DejaVuSans-57" transform="translate(154.390625 0)"/>
     <use xlink:href="#DejaVuSans-15" transform="translate(193.59375 0)"/>
    </g>
   </g>
   <g id="text_60">
    <!-- sort2 -->
    <g transform="translate(289.539063 391.397656) scale(0.1 -0.1)">
     <use xlink:href="#DejaVuSans-56"/>
     <use xlink:href="#DejaVuSans-52" transform="translate(52.09375 0)"/>
     <use xlink:href="#DejaVuSans-55" transform="translate(113.28125 0)"/>
     <use xlink:href="#DejaVuSans-57" transform="translate(154.390625 0)"/>
     <use xlink:href="#DejaVuSans-15" transform="translate(193.59375 0)"/>
    </g>
   </g>
  </g>
 </g>
 <defs>
  <clipPath id="pb5bdab1115">
   <rect x="0" y="0" width="504" height="432"/>
  </clipPath>
 </defs>
</svg>
